# xmcd
#
# Track frame offsets:
#	150
#	16581
#	30110
#	44752
#	58123
#	69811
#	85197
#	99875
#	113676
#	127557
#	143777
#	158119
#
# Disc length: 2292 seconds
#
# Revision: 1
# Processed by: cddbd v1.5.2PL0 Copyright (c) Steve Scherf et al.
# Submitted via: EasyCDDAExtractor 8.2.1.1
#
DISCID=8108f20c
DTITLE=Heartbeat - Living On Love
DYEAR=1900
DGENRE=Country
TTITLE0=Living On Love
TTITLE1=From A Jack To A King
TTITLE2=Somewhare Between
TTITLE3=Crazy Arms
TTITLE4=Heartbeat
TTITLE5=Baby Blue
TTITLE6=Who Did You Call Darlin'
TTITLE7=Seven Spanish Angels
TTITLE8=Big City
TTITLE9=Folson Prison Blues
TTITLE10=Lucky Lips
TTITLE11=I'll leave This World Loving You
EXTD=
EXTT0=
EXTT1=
EXTT2=
EXTT3=
EXTT4=
EXTT5=
EXTT6=
EXTT7=
EXTT8=
EXTT9=
EXTT10=
EXTT11=
PLAYORDER=
